<svg width="1920" height="1080" viewBox="0 0 1920 1080" fill="none" xmlns="http://www.w3.org/2000/svg">
<path d="M625.762 685.666H587.445V608.398H596.628V676.905H625.762V685.666ZM743.451 685.666H733.845L721.917 659.805H690.038L678.216 685.666H668.188L704.711 605.337H707.456L743.451 685.666ZM717.8 650.621L706.083 624.548L694.261 650.621H717.8ZM824.756 643.338C829.682 645.167 833.376 647.771 835.839 651.149C838.373 654.527 839.639 658.538 839.639 663.183C839.639 669.657 837.282 675.04 832.567 679.333C827.922 683.555 821.835 685.666 814.305 685.666H792.666V608.398H808.394C816.557 608.398 822.75 610.087 826.972 613.465C831.265 616.772 833.411 621.522 833.411 627.715C833.411 634.471 830.526 639.678 824.756 643.338ZM801.638 640.065H805.227C811.561 640.065 816.276 639.08 819.372 637.11C822.539 635.139 824.122 632.008 824.122 627.715C824.122 620.748 819.302 617.265 809.661 617.265H801.638V640.065ZM801.638 676.8H810.294C815.713 676.8 819.654 676.272 822.117 675.216C824.58 674.161 826.55 672.542 828.028 670.361C829.506 668.179 830.245 665.962 830.245 663.71C830.245 661.458 829.787 659.488 828.872 657.799C828.028 656.04 826.726 654.492 824.967 653.154C823.278 651.817 821.167 650.832 818.633 650.199C816.17 649.495 811.666 649.143 805.122 649.143H801.638V676.8ZM921.893 625.393C919.078 621.593 916.685 619.059 914.715 617.792C912.744 616.455 910.422 615.787 907.748 615.787C905.144 615.787 902.927 616.631 901.098 618.32C899.338 620.009 898.459 622.191 898.459 624.865C898.459 627.469 899.303 629.756 900.992 631.726C902.681 633.697 906.551 636.934 912.603 641.438C918.726 645.871 923.194 650.058 926.009 653.999C928.824 657.94 930.232 662.092 930.232 666.455C930.232 672.155 928.015 677.116 923.581 681.339C919.218 685.491 914.116 687.567 908.276 687.567C898.001 687.567 889.944 681.831 884.103 670.361L891.808 665.927C896.383 674.442 901.52 678.7 907.22 678.7C910.879 678.7 914.011 677.538 916.615 675.216C919.218 672.894 920.52 670.185 920.52 667.088C920.52 663.992 919.43 661.071 917.248 658.327C915.066 655.512 911.302 652.099 905.953 648.088C900.605 644.006 896.91 640.91 894.87 638.799C892.899 636.687 891.457 634.435 890.542 632.043C889.627 629.65 889.169 627.257 889.169 624.865C889.169 619.728 890.929 615.4 894.447 611.881C898.036 608.292 902.646 606.498 908.276 606.498C912.639 606.498 916.439 607.624 919.676 609.876C922.913 612.057 926.08 615.329 929.176 619.692L921.893 625.393Z" fill="white"/>
<path fill-rule="evenodd" clip-rule="evenodd" d="M761.891 385.215H857.69V419.966L857.721 419.997L857.69 420.028V420.052H857.667L776.383 501.336H857.69V536.172H727.054V501.336H727.055L727.055 385.215L729.957 385.215H761.891ZM761.891 420.052H808.401L761.891 466.562V420.052ZM997.034 385.215H875.108V536.172H909.944V420.052H997.034V385.215ZM1014.45 385.215H1165.41V536.172H1014.45V385.215ZM1049.29 420.052V475.209L1104.45 420.052L1130.57 420.052H1049.29ZM1130.57 501.336H1049.29L1072.43 501.336L1130.57 443.19V501.336ZM581.903 385.215H709.636V420.052H709.613L628.329 501.336H709.636V536.172H579V501.336H579.063L660.347 420.052H581.903V385.215ZM709.668 419.997L709.637 419.966V420.028L709.668 419.997Z" fill="white"/>
<path fill-rule="evenodd" clip-rule="evenodd" d="M1282.94 460.694L1341 402.633L1316.37 378L1251.09 443.275H1217.66L1217.66 385.215L1217.66 385.215H1182.83V536.172L1182.83 536.172H1217.66L1217.66 478.111H1251.09L1316.37 543.387L1341 518.754L1282.94 460.694Z" fill="#FF0000"/>
<path fill-rule="evenodd" clip-rule="evenodd" d="M391.726 650.154L449.754 708.247L474.401 683.628L409.163 618.316L409.182 584.889L467.242 584.922L467.242 584.921L467.262 550.085L316.305 550L316.304 550L316.285 584.836L374.345 584.869L374.326 618.296L309.014 683.534L333.633 708.181L391.726 650.154Z" fill="#FF0000"/>
<path fill-rule="evenodd" clip-rule="evenodd" d="M467.183 385.085L467.097 536.042L316.14 535.957L316.226 385L467.183 385.085ZM432.327 419.902L351.042 419.856L350.996 501.14L432.281 501.186L432.327 419.902Z" fill="white"/>
<path fill-rule="evenodd" clip-rule="evenodd" d="M432.296 475.059L351.057 393.729L351.029 442.995L432.268 524.325L432.296 475.059ZM432.291 524.348L432.353 524.348L432.322 524.379L432.291 524.348Z" fill="white"/>
</svg>
