<svg width="762" height="166" viewBox="0 0 762 166" fill="none" xmlns="http://www.w3.org/2000/svg">
<path fill-rule="evenodd" clip-rule="evenodd" d="M418.034 7.21533H296.108V158.172H330.944V42.0516H418.034V7.21533ZM435.452 7.21533H586.409V158.172H435.452V7.21533ZM470.288 42.0516V97.2077L525.445 42.0516H470.288ZM470.288 123.336V123.336H493.426L551.573 65.189V123.336H470.288ZM2.90332 7.21538H130.636V42.0516H130.614L49.3295 123.336H130.636V158.172H0V123.336H0.0636519L81.3478 42.0516H2.90332V7.21538ZM130.668 41.997L130.637 41.9656V42.0284L130.668 41.997ZM182.892 7.21533H278.691V42.0516H278.667L197.383 123.336H278.691V158.172H148.055V123.336H148.055V7.21533H150.958H182.892ZM182.892 42.0516H229.402L182.892 88.5616V42.0516ZM278.691 41.9658L278.722 41.9968L278.691 42.0277V41.9658Z" fill="white"/>
<path fill-rule="evenodd" clip-rule="evenodd" d="M703.521 82.6936L761.582 24.6329L736.949 0L671.674 65.2752L638.246 65.2752V7.21533V7.21482L603.41 7.21482V7.21533V158.172V158.172H638.246V158.172V100.111L671.673 100.111L736.949 165.387L761.582 140.754L703.521 82.6936Z" fill="#FF0000"/>
</svg>
